<mxfile host="65bd71144e">
    <diagram id="PHAZTwvSJs3tpsg8RhT4" name="Quiz">
        <mxGraphModel dx="717" dy="498" grid="1" gridSize="10" guides="1" tooltips="1" connect="1" arrows="1" fold="1" page="1" pageScale="1" pageWidth="850" pageHeight="1100" math="0" shadow="0">
            <root>
                <mxCell id="rj7ZBL9GnCpkZjyiGFAT-0"/>
                <mxCell id="rj7ZBL9GnCpkZjyiGFAT-1" parent="rj7ZBL9GnCpkZjyiGFAT-0"/>
                <mxCell id="fnMedMm74Vx4komnPYh7-1" value="" style="rounded=0;whiteSpace=wrap;html=1;fontSize=12;" parent="rj7ZBL9GnCpkZjyiGFAT-1" vertex="1">
                    <mxGeometry width="850" height="80" as="geometry"/>
                </mxCell>
                <mxCell id="fnMedMm74Vx4komnPYh7-2" value="" style="rounded=0;whiteSpace=wrap;html=1;" parent="rj7ZBL9GnCpkZjyiGFAT-1" vertex="1">
                    <mxGeometry x="600" y="17.5" width="230" height="30" as="geometry"/>
                </mxCell>
                <mxCell id="fnMedMm74Vx4komnPYh7-3" value="Home" style="rounded=0;whiteSpace=wrap;html=1;" parent="rj7ZBL9GnCpkZjyiGFAT-1" vertex="1">
                    <mxGeometry x="610" y="22.5" width="50" height="20" as="geometry"/>
                </mxCell>
                <mxCell id="fnMedMm74Vx4komnPYh7-4" value="Random Quote Generator" style="rounded=0;whiteSpace=wrap;html=1;" parent="rj7ZBL9GnCpkZjyiGFAT-1" vertex="1">
                    <mxGeometry x="670" y="22.5" width="150" height="20" as="geometry"/>
                </mxCell>
                <mxCell id="fnMedMm74Vx4komnPYh7-0" value="Quote Me, Senpai" style="rounded=0;whiteSpace=wrap;html=1;" parent="rj7ZBL9GnCpkZjyiGFAT-1" vertex="1">
                    <mxGeometry x="10" y="10" width="120" height="45" as="geometry"/>
                </mxCell>
                <mxCell id="qAMOZQ2YStMqOkCcbtmP-0" value="Current Win Streak: 0 || Best Win Streak: 1" style="rounded=0;whiteSpace=wrap;html=1;" parent="rj7ZBL9GnCpkZjyiGFAT-1" vertex="1">
                    <mxGeometry x="280" y="56" width="250" height="20" as="geometry"/>
                </mxCell>
                <mxCell id="UZNMUrl0mO9TLFQOylir-0" value="" style="rounded=0;whiteSpace=wrap;html=1;" parent="rj7ZBL9GnCpkZjyiGFAT-1" vertex="1">
                    <mxGeometry x="185" y="190" width="480" height="240" as="geometry"/>
                </mxCell>
                <mxCell id="UZNMUrl0mO9TLFQOylir-1" value="Quote" style="rounded=0;whiteSpace=wrap;html=1;fontSize=12;" parent="rj7ZBL9GnCpkZjyiGFAT-1" vertex="1">
                    <mxGeometry x="350" y="210" width="150" height="60" as="geometry"/>
                </mxCell>
                <mxCell id="UZNMUrl0mO9TLFQOylir-2" value="Answer 1" style="rounded=0;whiteSpace=wrap;html=1;" parent="rj7ZBL9GnCpkZjyiGFAT-1" vertex="1">
                    <mxGeometry x="280" y="285" width="290" height="20" as="geometry"/>
                </mxCell>
                <mxCell id="UZNMUrl0mO9TLFQOylir-3" value="Answer 2" style="rounded=0;whiteSpace=wrap;html=1;" parent="rj7ZBL9GnCpkZjyiGFAT-1" vertex="1">
                    <mxGeometry x="280" y="320" width="290" height="20" as="geometry"/>
                </mxCell>
                <mxCell id="UZNMUrl0mO9TLFQOylir-4" value="Answer 3" style="rounded=0;whiteSpace=wrap;html=1;" parent="rj7ZBL9GnCpkZjyiGFAT-1" vertex="1">
                    <mxGeometry x="280" y="350" width="290" height="20" as="geometry"/>
                </mxCell>
                <mxCell id="UZNMUrl0mO9TLFQOylir-5" value="Answer 4" style="rounded=0;whiteSpace=wrap;html=1;" parent="rj7ZBL9GnCpkZjyiGFAT-1" vertex="1">
                    <mxGeometry x="280" y="380" width="290" height="20" as="geometry"/>
                </mxCell>
            </root>
        </mxGraphModel>
    </diagram>
</mxfile>